<svg width="189" height="77" viewBox="0 0 189 77" fill="none" xmlns="http://www.w3.org/2000/svg">
<g id="Isolation_Mode" clip-path="url(#clip0_1317_1688)">
<path id="Vector" d="M57.9202 50.3196L58.7075 0.998535H1.27393L2.03475 50.355V50.4169C2.03475 50.4169 1.73396 58.8479 9.75803 63.6164C17.7821 68.3848 29.7519 76.0019 29.7519 76.0019C29.7519 76.0019 29.8492 76.0904 29.973 76.0019C29.973 76.0019 42.1817 68.3848 50.1969 63.6164C58.221 58.8479 57.9202 50.4169 57.9202 50.4169V50.3284V50.3196Z" stroke="#F4F5F5" stroke-width="1.27"/>
<path id="Vector_2" d="M77.4894 9.91626C77.4894 5.04166 77.4894 4.16583 77.4275 3.16613C77.3656 2.10452 77.109 1.60025 76.0828 1.38792C75.8351 1.326 75.3043 1.29061 75.0212 1.29061C74.8973 1.29061 74.7734 1.22868 74.7734 1.10482C74.7734 0.919039 74.9327 0.848267 75.2777 0.848267C76.6844 0.848267 78.6484 0.945582 78.8076 0.945582C79.5596 0.945582 80.7716 0.848267 82.2136 0.848267C87.3359 0.848267 88.4595 3.9712 88.4595 5.53708C88.4595 8.10266 86.9909 9.62432 85.5223 11.1637C87.8314 11.8891 90.9277 14.1008 90.9277 17.7546C90.9277 21.0987 88.3091 24.5666 82.9656 24.5666C82.6206 24.5666 81.6209 24.5047 80.7185 24.4693C79.8073 24.4074 78.9403 24.372 78.8164 24.372C78.7545 24.372 78.2237 24.372 77.569 24.4074C76.9409 24.4074 76.2243 24.4693 75.7554 24.4693C75.4104 24.4693 75.26 24.4074 75.26 24.2216C75.26 24.1243 75.3219 24.0358 75.5077 24.0358C75.7908 24.0358 76.1624 23.9739 76.4455 23.9119C77.0648 23.7881 77.224 23.098 77.3479 22.1957C77.5071 20.8863 77.5071 18.4181 77.5071 15.419V9.92511L77.4894 9.91626ZM79.9931 10.6063C79.9931 10.8275 80.055 10.8894 80.2142 10.9513C80.4 10.9867 80.9662 11.0752 82.1163 11.0752C83.868 11.0752 84.3015 11.0133 84.9561 10.2613C85.6108 9.50931 86.0797 8.38576 86.0797 7.10297C86.0797 4.51085 84.9207 1.73295 81.8597 1.73295C81.5147 1.73295 80.8601 1.76834 80.3558 1.89219C80.0727 1.95412 79.9842 2.05143 79.9842 2.23722V10.6063H79.9931ZM79.9931 13.915C79.9931 16.3214 79.9931 20.1963 80.0196 20.6652C80.1169 22.1957 80.1169 22.6292 81.0812 23.098C81.9217 23.505 83.2664 23.5669 83.8326 23.5669C85.5135 23.5669 88.2383 22.6645 88.2383 19.1347C88.2383 17.2591 87.6102 14.5432 85.2127 12.8888C84.1511 12.1722 83.3726 12.0749 82.6206 11.9864C82.2136 11.9245 80.6477 11.9245 80.1877 11.9245C80.0638 11.9245 80.0019 11.9864 80.0019 12.1457V13.9239L79.9931 13.915Z" fill="#F4F5F5"/>
<path id="Vector_3" d="M106.011 4.00659C112.195 4.00659 116.884 7.78419 116.884 13.9681C116.884 20.1521 112.479 24.8055 105.861 24.8055C98.3324 24.8055 95.1122 19.1524 95.1122 14.3751C95.1122 10.0932 98.4209 4.00659 106.011 4.00659ZM106.64 23.7173C109.108 23.7173 114.071 22.408 114.071 14.7201C114.071 8.35038 110.196 5.00628 105.861 5.00628C101.27 5.00628 97.9609 7.8815 97.9609 13.6585C97.9609 19.8424 101.677 23.7173 106.64 23.7173Z" fill="#F4F5F5"/>
<path id="Vector_4" d="M131.243 4.00659C137.427 4.00659 142.115 7.78419 142.115 13.9681C142.115 20.1521 137.71 24.8055 131.083 24.8055C123.555 24.8055 120.334 19.1524 120.334 14.3751C120.334 10.0932 123.643 4.00659 131.234 4.00659M131.862 23.7173C134.33 23.7173 139.293 22.408 139.293 14.7201C139.293 8.35038 135.418 5.00628 131.075 5.00628C126.483 5.00628 123.174 7.8815 123.174 13.6585C123.174 19.8424 126.89 23.7173 131.862 23.7173Z" fill="#F4F5F5"/>
<path id="Vector_5" d="M153.926 16.7548C153.926 19.3115 153.926 21.4082 154.05 22.5052C154.138 23.2838 154.271 23.788 155.111 23.9119C155.483 23.9738 156.111 24.0357 156.359 24.0357C156.545 24.0357 156.58 24.1596 156.58 24.2569C156.58 24.3808 156.456 24.4781 156.146 24.4781C154.642 24.4781 152.9 24.3808 152.74 24.3808C152.617 24.3808 150.714 24.4781 149.901 24.4781C149.591 24.4781 149.458 24.4162 149.458 24.2569C149.458 24.1596 149.52 24.0711 149.679 24.0711C149.927 24.0711 150.237 24.0092 150.493 23.9473C151.059 23.8234 151.219 23.2926 151.307 22.5141C151.431 21.4171 151.431 19.3292 151.431 16.7637V5.60781L147.468 5.66974C145.751 5.70513 145.097 5.89091 144.69 6.51019C144.38 6.97907 144.345 7.16485 144.247 7.35063C144.186 7.57181 144.097 7.59835 143.964 7.59835C143.902 7.59835 143.779 7.53642 143.779 7.38602C143.779 7.10292 144.345 4.73198 144.371 4.5108C144.433 4.36041 144.557 4.01538 144.654 4.01538C144.84 4.01538 145.123 4.23655 145.875 4.32502C146.654 4.42234 147.724 4.44888 148.034 4.44888H158.402C159.305 4.44888 159.933 4.38695 160.366 4.32502C160.773 4.26309 161.021 4.20116 161.145 4.20116C161.269 4.20116 161.269 4.36041 161.269 4.5108C161.269 5.32471 161.18 7.22678 161.18 7.54527C161.18 7.76644 161.056 7.89029 160.933 7.89029C160.809 7.89029 160.747 7.80182 160.711 7.42141L160.685 7.13831C160.588 6.3244 159.995 5.73167 157.376 5.66974L153.944 5.60781V16.7637L153.926 16.7548Z" fill="#F4F5F5"/>
<path id="Vector_6" d="M183.757 16.7548C183.757 19.3116 183.793 21.4083 183.917 22.5053C184.005 23.2838 184.076 23.7881 184.916 23.9119C185.288 23.9738 185.916 24.0358 186.137 24.0358C186.323 24.0358 186.385 24.1596 186.385 24.2569C186.385 24.3808 186.226 24.4781 185.916 24.4781C184.412 24.4781 182.669 24.3808 182.51 24.3808C182.386 24.3808 180.599 24.4781 179.794 24.4781C179.484 24.4781 179.361 24.4162 179.361 24.2569C179.361 24.1596 179.422 24.0358 179.582 24.0358C179.829 24.0358 180.148 23.9738 180.396 23.9119C180.962 23.7881 181.05 23.2572 181.148 22.4787C181.271 21.3817 181.271 19.3823 181.271 16.8256V14.1716C181.271 14.0477 181.21 14.0123 181.112 14.0123H169.647C169.549 14.0123 169.487 14.0477 169.487 14.1716V16.8256C169.487 19.3912 169.487 21.4171 169.611 22.5141C169.709 23.2926 169.797 23.7969 170.611 23.9208C171.018 23.9827 171.611 24.0446 171.858 24.0446C172.018 24.0446 172.08 24.1685 172.08 24.2658C172.08 24.3896 171.956 24.4869 171.646 24.4869C170.116 24.4869 168.364 24.3896 168.24 24.3896C168.081 24.3896 166.338 24.4869 165.498 24.4869C165.214 24.4869 165.055 24.425 165.055 24.2658C165.055 24.1685 165.117 24.0446 165.276 24.0446C165.524 24.0446 165.869 23.9827 166.117 23.9208C166.648 23.7969 166.71 23.2926 166.833 22.5141C166.984 21.4171 166.984 19.3293 166.984 16.7637V12.0749C166.984 7.95223 166.984 7.20025 166.922 6.3598C166.86 5.45743 166.71 5.01509 165.798 4.89123C165.577 4.86469 165.108 4.8293 164.861 4.8293C164.763 4.8293 164.639 4.70545 164.639 4.60813C164.639 4.44889 164.763 4.38696 165.073 4.38696C166.32 4.38696 168.072 4.44889 168.231 4.44889C168.355 4.44889 170.107 4.38696 170.947 4.38696C171.257 4.38696 171.381 4.44889 171.381 4.60813C171.381 4.70545 171.257 4.8293 171.16 4.8293C170.974 4.8293 170.788 4.8293 170.469 4.89123C169.717 5.05047 169.558 5.42204 169.496 6.3598C169.461 7.20025 169.461 8.01416 169.461 12.1368V12.703C169.461 12.8622 169.523 12.8622 169.62 12.8622H181.086C181.174 12.8622 181.245 12.8622 181.245 12.703V12.1368C181.245 8.01416 181.21 7.20025 181.183 6.3598C181.121 5.45743 180.997 5.01509 180.095 4.89123C179.874 4.86469 179.405 4.8293 179.157 4.8293C179.033 4.8293 178.936 4.70545 178.936 4.60813C178.936 4.44889 179.06 4.38696 179.378 4.38696C180.599 4.38696 182.377 4.44889 182.501 4.44889C182.66 4.44889 184.403 4.38696 185.217 4.38696C185.536 4.38696 185.686 4.44889 185.686 4.60813C185.686 4.70545 185.562 4.8293 185.438 4.8293C185.253 4.8293 185.093 4.8293 184.748 4.89123C184.032 5.05047 183.872 5.42204 183.81 6.3598C183.749 7.20025 183.749 7.95223 183.749 12.0749V16.7637L183.757 16.7548Z" fill="#F4F5F5"/>
<path id="Vector_7" d="M77.339 44.2862C77.339 41.4287 77.339 40.9244 77.3036 40.3405C77.2682 39.7212 77.1178 39.4293 76.5162 39.2966C76.3746 39.2612 76.0562 39.2435 75.8969 39.2435C75.8261 39.2435 75.7554 39.2081 75.7554 39.1373C75.7554 39.0312 75.8438 38.9869 76.0473 38.9869C76.8701 38.9869 77.9848 39.04 78.1529 39.04C78.321 39.04 79.418 38.9869 79.9665 38.9869C80.1699 38.9869 80.2584 39.0223 80.2584 39.1373C80.2584 39.2081 80.1876 39.2435 80.1169 39.2435C79.9842 39.2435 79.878 39.2612 79.6568 39.2966C79.1614 39.3674 79.011 39.7035 78.9845 40.3405C78.9491 40.9244 78.9491 41.4375 78.9491 44.2862V46.8429C78.9491 49.4793 79.533 50.6117 80.3203 51.3637C81.2139 52.2041 82.0366 52.3722 83.0805 52.3722C84.1952 52.3722 85.2923 51.8414 85.9558 51.054C86.7962 50.0101 87.0174 48.4619 87.0174 46.5775V44.2862C87.0174 41.4287 87.0174 40.9244 86.982 40.3405C86.9466 39.7212 86.8051 39.4293 86.1946 39.2966C86.0531 39.2612 85.7346 39.2435 85.5754 39.2435C85.5046 39.2435 85.425 39.2081 85.425 39.1373C85.425 39.0312 85.5134 38.9869 85.7169 38.9869C86.5397 38.9869 87.5482 39.04 87.6544 39.04C87.7782 39.04 88.6364 38.9869 89.1849 38.9869C89.3883 38.9869 89.4768 39.0223 89.4768 39.1373C89.4768 39.2081 89.406 39.2435 89.3264 39.2435C89.2026 39.2435 89.0875 39.2612 88.8664 39.2966C88.3709 39.4027 88.2294 39.7035 88.194 40.3405C88.1586 40.9244 88.1586 41.4375 88.1586 44.2862V46.2413C88.1586 48.2142 87.9375 50.4082 86.4777 51.7087C85.1595 52.8765 83.7883 53.0622 82.709 53.0622C82.0897 53.0622 80.2407 52.9915 78.9402 51.7618C78.0467 50.9036 77.3478 49.6208 77.3478 46.9491V44.2773L77.339 44.2862Z" fill="#F4F5F5"/>
<path id="Vector_8" d="M93.2898 50.6914C93.3251 51.9742 93.4755 52.3546 93.909 52.4607C94.201 52.5403 94.5637 52.558 94.7141 52.558C94.7849 52.558 94.8379 52.6111 94.8379 52.6819C94.8379 52.7704 94.7318 52.8146 94.546 52.8146C93.6348 52.8146 92.989 52.7615 92.8474 52.7615C92.7059 52.7615 92.0247 52.8146 91.2904 52.8146C91.1311 52.8146 91.0338 52.7969 91.0338 52.6819C91.0338 52.6111 91.0869 52.558 91.1665 52.558C91.2904 52.558 91.5823 52.5403 91.83 52.4607C92.2281 52.3546 92.2812 51.9299 92.2812 50.5233V41.6145C92.2812 40.9952 92.3697 40.8271 92.5024 40.8271C92.6793 40.8271 92.9624 41.1368 93.1217 41.3049C93.3782 41.5614 95.7138 44.0474 98.2086 46.6041C99.801 48.2496 101.517 50.0986 102.013 50.6117L101.845 42.8177C101.827 41.8091 101.738 41.4641 101.243 41.3757C100.951 41.3226 100.588 41.3049 100.456 41.3049C100.35 41.3049 100.323 41.2164 100.323 41.1545C100.323 41.066 100.456 41.0483 100.633 41.0483C101.367 41.0483 102.137 41.0837 102.314 41.0837C102.49 41.0837 103.03 41.0483 103.685 41.0483C103.853 41.0483 103.977 41.066 103.977 41.1545C103.977 41.2076 103.906 41.3049 103.791 41.3049C103.72 41.3049 103.587 41.3049 103.411 41.3403C102.88 41.4464 102.844 41.7561 102.844 42.6938L102.809 51.7972C102.809 52.8234 102.791 52.9119 102.685 52.9119C102.517 52.9119 102.349 52.7881 101.455 51.9565C101.296 51.8061 98.9694 49.5236 97.2708 47.7454C95.4041 45.7902 93.5994 43.8882 93.104 43.3397L93.2898 50.6737V50.6914Z" fill="#F4F5F5"/>
<path id="Vector_9" d="M108.94 48.2938C108.94 49.7977 108.94 51.0186 109.011 51.6556C109.064 52.1156 109.117 52.4076 109.594 52.4783C109.833 52.5137 110.178 52.5491 110.329 52.5491C110.417 52.5491 110.461 52.6199 110.461 52.673C110.461 52.7526 110.391 52.8057 110.205 52.8057C109.311 52.8057 108.267 52.7526 108.197 52.7526C108.108 52.7526 107.1 52.8057 106.604 52.8057C106.436 52.8057 106.348 52.7703 106.348 52.673C106.348 52.6199 106.383 52.5491 106.48 52.5491C106.622 52.5491 106.825 52.5137 106.976 52.4783C107.285 52.4076 107.339 52.1156 107.392 51.6556C107.462 51.0098 107.48 49.7889 107.48 48.2938V45.5513C107.48 43.1361 107.48 42.7026 107.445 42.2072C107.409 41.6763 107.277 41.4375 106.932 41.3667C106.746 41.3313 106.542 41.3136 106.436 41.3136C106.365 41.3136 106.303 41.2429 106.303 41.1898C106.303 41.1013 106.374 41.0659 106.56 41.0659C107.091 41.0659 108.099 41.1013 108.188 41.1013C108.259 41.1013 109.303 41.0659 109.798 41.0659C109.984 41.0659 110.055 41.1013 110.055 41.1898C110.055 41.2429 109.984 41.3136 109.922 41.3136C109.816 41.3136 109.701 41.3136 109.524 41.349C109.081 41.4375 108.993 41.6587 108.958 42.2072C108.94 42.7026 108.94 43.1361 108.94 45.5513V48.2938Z" fill="#F4F5F5"/>
<path id="Vector_10" d="M118.123 50.7797C119.052 48.6919 121.157 43.3926 121.502 42.2779C121.573 42.0391 121.644 41.8179 121.644 41.694C121.644 41.5702 121.591 41.4198 121.432 41.3667C121.246 41.3136 121.06 41.3136 120.883 41.3136C120.795 41.3136 120.697 41.2606 120.697 41.1898C120.697 41.1013 120.803 41.0659 121.06 41.0659C121.706 41.0659 122.431 41.1013 122.635 41.1013C122.723 41.1013 123.422 41.0659 123.9 41.0659C124.059 41.0659 124.156 41.1013 124.156 41.1721C124.156 41.2429 124.103 41.3225 123.971 41.3225C123.856 41.3225 123.493 41.3225 123.201 41.5083C122.98 41.6498 122.723 41.871 122.299 42.9326C122.122 43.3749 121.334 45.2416 120.511 47.1437C119.521 49.4085 118.813 51.0894 118.441 51.859C118.008 52.788 117.91 53.0268 117.751 53.0268C117.565 53.0268 117.459 52.8234 117.15 52.0802L113.195 42.5522C112.832 41.6763 112.611 41.5083 112.08 41.3844C111.824 41.3313 111.55 41.3313 111.461 41.3313C111.373 41.3313 111.337 41.2429 111.337 41.1809C111.337 41.0925 111.505 41.0748 111.753 41.0748C112.523 41.0748 113.434 41.1102 113.637 41.1102C113.797 41.1102 114.513 41.0748 115.133 41.0748C115.425 41.0748 115.575 41.1102 115.575 41.1809C115.575 41.2517 115.522 41.3313 115.416 41.3313C115.23 41.3313 114.973 41.349 114.832 41.4021C114.673 41.4729 114.655 41.5702 114.655 41.6764C114.655 41.8798 114.849 42.3576 115.097 42.9768L118.132 50.8063L118.123 50.7797Z" fill="#F4F5F5"/>
<path id="Vector_11" d="M126.536 45.5513C126.536 43.1362 126.536 42.6938 126.501 42.2072C126.465 41.6764 126.377 41.4199 125.846 41.3491C125.722 41.3314 125.448 41.3137 125.298 41.3137C125.245 41.3137 125.165 41.2429 125.165 41.1899C125.165 41.1014 125.236 41.066 125.421 41.066C126.156 41.066 127.191 41.1014 127.288 41.1014C127.394 41.1014 130.756 41.1191 131.128 41.1014C131.437 41.0837 131.729 41.0306 131.862 41.0129C131.933 40.9952 132.004 40.9421 132.083 40.9421C132.136 40.9421 132.154 41.0129 132.154 41.0925C132.154 41.1987 132.065 41.3845 132.021 41.8268C132.004 41.9772 131.968 42.6673 131.933 42.8531C131.915 42.9238 131.862 43.0123 131.782 43.0123C131.685 43.0123 131.65 42.9415 131.65 42.8088C131.65 42.7027 131.632 42.4461 131.561 42.2603C131.455 42.0038 131.287 41.8976 130.411 41.7826C130.137 41.7472 128.27 41.7295 128.093 41.7295C128.022 41.7295 128.005 41.7826 128.005 41.8976V46.1175C128.005 46.2237 128.005 46.2856 128.093 46.2856C128.297 46.2856 130.411 46.2856 130.783 46.2502C131.163 46.2148 131.402 46.1883 131.57 46.0291C131.676 45.9229 131.756 45.8256 131.809 45.8256C131.862 45.8256 131.897 45.861 131.897 45.9494C131.897 46.0379 131.809 46.2945 131.773 46.8076C131.738 47.1172 131.694 47.7011 131.694 47.8161C131.694 47.94 131.658 48.1081 131.552 48.1081C131.482 48.1081 131.446 48.055 131.446 47.9577C131.446 47.8161 131.446 47.648 131.375 47.4446C131.322 47.2234 131.172 47.0465 130.553 46.9668C130.11 46.9138 128.394 46.8961 128.12 46.8961C128.031 46.8961 128.014 46.9491 128.014 47.0022V48.3027C128.014 48.8335 127.996 50.6471 128.014 50.9567C128.049 52.0007 128.341 52.2042 129.933 52.2042C130.358 52.2042 131.119 52.2042 131.543 52.0361C131.959 51.8503 132.18 51.576 132.278 50.9567C132.313 50.771 132.349 50.7179 132.446 50.7179C132.543 50.7179 132.552 50.8506 132.552 50.9567C132.552 51.0629 132.419 52.1245 132.331 52.4607C132.225 52.8588 132.057 52.8588 131.437 52.8588C130.234 52.8588 129.296 52.8234 128.642 52.8057C127.961 52.7704 127.545 52.7703 127.306 52.7703C127.27 52.7703 126.961 52.7703 126.607 52.788C126.297 52.8057 125.935 52.8234 125.678 52.8234C125.51 52.8234 125.421 52.788 125.421 52.6907C125.421 52.6377 125.457 52.5669 125.554 52.5669C125.696 52.5669 125.899 52.5138 126.05 52.4961C126.359 52.443 126.395 52.1334 126.465 51.6733C126.554 51.0364 126.554 49.8067 126.554 48.3115V45.569L126.536 45.5513Z" fill="#F4F5F5"/>
<path id="Vector_12" d="M136.613 45.5513C136.613 43.1361 136.613 42.6937 136.577 42.2072C136.542 41.6763 136.445 41.4198 135.923 41.349C135.799 41.3313 135.525 41.3136 135.374 41.3136C135.321 41.3136 135.241 41.2429 135.241 41.1898C135.241 41.1013 135.321 41.0659 135.498 41.0659C136.232 41.0659 137.312 41.1013 137.4 41.1013C137.568 41.1013 138.922 41.0659 139.417 41.0659C140.443 41.0659 141.576 41.1544 142.416 41.7383C142.814 42.0302 143.531 42.7822 143.531 43.8615C143.531 45.0116 143.053 46.1263 141.558 47.4091C142.876 49.0546 143.991 50.4701 144.92 51.4344C145.778 52.3102 146.309 52.4606 146.707 52.5137C147.017 52.5668 147.185 52.5668 147.273 52.5668C147.362 52.5668 147.415 52.6376 147.415 52.6907C147.415 52.788 147.326 52.8234 147.034 52.8234H146.026C145.115 52.8234 144.708 52.7349 144.309 52.5137C143.619 52.151 143.027 51.399 142.115 50.2224C141.434 49.3819 140.726 48.3734 140.381 47.9576C140.311 47.8868 140.275 47.8691 140.16 47.8691L138.108 47.8337C138.037 47.8337 138.002 47.8691 138.002 47.9576V48.3203C138.002 49.8243 138.002 51.0274 138.072 51.6644C138.126 52.1245 138.223 52.4164 138.709 52.4872C138.931 52.5226 139.276 52.558 139.417 52.558C139.523 52.558 139.55 52.6287 139.55 52.6818C139.55 52.7614 139.479 52.8145 139.293 52.8145C138.417 52.8145 137.391 52.7614 137.32 52.7614C137.303 52.7614 136.223 52.8145 135.728 52.8145C135.569 52.8145 135.471 52.7791 135.471 52.6818C135.471 52.6287 135.507 52.558 135.604 52.558C135.755 52.558 135.949 52.5226 136.1 52.4872C136.409 52.4164 136.445 52.1245 136.524 51.6644C136.613 51.0274 136.613 49.7977 136.613 48.3026V45.5601V45.5513ZM138.002 46.8694C138.002 46.9579 138.037 47.011 138.108 47.0729C138.347 47.2056 139.169 47.3118 139.886 47.3118C140.266 47.3118 140.709 47.2941 141.089 47.0375C141.638 46.666 142.062 45.8521 142.062 44.6577C142.062 42.7203 141.001 41.6056 139.284 41.6056C138.807 41.6056 138.294 41.6587 138.134 41.694C138.055 41.7294 138.011 41.7914 138.011 41.8798V46.8694H138.002Z" fill="#F4F5F5"/>
<path id="Vector_13" d="M147.388 52.5934C147.167 52.4873 147.149 52.4253 147.149 52.0095C147.149 51.2399 147.22 50.6206 147.238 50.364C147.238 50.2048 147.273 50.1075 147.362 50.1075C147.45 50.1075 147.512 50.1605 147.512 50.2933C147.512 50.426 147.512 50.6383 147.565 50.8595C147.822 51.9918 149.034 52.3988 150.113 52.3988C151.705 52.3988 152.528 51.5053 152.528 50.3375C152.528 49.1697 151.927 48.692 150.493 47.6304L149.759 47.0819C148.025 45.7814 147.45 44.8348 147.45 43.7554C147.45 41.9242 148.892 40.8271 151.015 40.8271C151.652 40.8271 152.298 40.9156 152.679 41.0129C152.988 41.0837 153.121 41.0837 153.245 41.0837C153.369 41.0837 153.404 41.1014 153.404 41.1899C153.404 41.2606 153.333 41.7738 153.333 42.8354C153.333 43.0742 153.316 43.1804 153.209 43.1804C153.094 43.1804 153.077 43.1096 153.059 42.9769C153.041 42.7911 152.917 42.3753 152.82 42.2073C152.714 42.0215 152.183 41.4376 150.732 41.4376C149.564 41.4376 148.591 42.0215 148.591 43.1185C148.591 44.1093 149.087 44.6755 150.679 45.7548L151.139 46.0645C153.094 47.4003 153.776 48.4797 153.776 49.8155C153.776 50.7268 153.431 51.7176 152.272 52.4696C151.59 52.9119 150.591 53.0181 149.706 53.0181C148.954 53.0181 148.025 52.9119 147.362 52.5934" fill="#F4F5F5"/>
<path id="Vector_14" d="M159.42 48.2938C159.42 49.7977 159.42 51.0186 159.491 51.6556C159.544 52.1156 159.597 52.4076 160.074 52.4783C160.313 52.5137 160.658 52.5491 160.809 52.5491C160.897 52.5491 160.941 52.6199 160.941 52.673C160.941 52.7526 160.862 52.8057 160.685 52.8057C159.791 52.8057 158.747 52.7526 158.668 52.7526C158.579 52.7526 157.571 52.8057 157.075 52.8057C156.907 52.8057 156.819 52.7703 156.819 52.673C156.819 52.6199 156.854 52.5491 156.943 52.5491C157.093 52.5491 157.288 52.5137 157.438 52.4783C157.748 52.4076 157.801 52.1156 157.863 51.6556C157.934 51.0098 157.951 49.7889 157.951 48.2938V45.5513C157.951 43.1361 157.951 42.7026 157.916 42.2072C157.88 41.6763 157.748 41.4375 157.403 41.3667C157.217 41.3313 157.013 41.3136 156.907 41.3136C156.837 41.3136 156.783 41.2429 156.783 41.1898C156.783 41.1013 156.854 41.0659 157.04 41.0659C157.571 41.0659 158.579 41.1013 158.668 41.1013C158.739 41.1013 159.783 41.0659 160.278 41.0659C160.464 41.0659 160.535 41.1013 160.535 41.1898C160.535 41.2429 160.464 41.3136 160.402 41.3136C160.296 41.3136 160.181 41.3136 160.004 41.349C159.561 41.4375 159.473 41.6587 159.437 42.2072C159.42 42.7026 159.42 43.1361 159.42 45.5513V48.2938Z" fill="#F4F5F5"/>
<path id="Vector_15" d="M168.576 48.2938C168.576 49.7978 168.576 51.0186 168.647 51.6556C168.7 52.1156 168.771 52.4076 169.266 52.4784C169.487 52.5137 169.85 52.5491 170.001 52.5491C170.107 52.5491 170.133 52.6199 170.133 52.673C170.133 52.7526 170.063 52.8057 169.877 52.8057C169.001 52.8057 167.975 52.7526 167.886 52.7526C167.815 52.7526 166.701 52.8057 166.223 52.8057C166.037 52.8057 165.966 52.7703 165.966 52.673C165.966 52.6199 166.002 52.5668 166.099 52.5668C166.241 52.5668 166.426 52.5314 166.577 52.4961C166.904 52.4253 167.002 52.1156 167.055 51.6556C167.125 51.0098 167.125 49.7889 167.125 48.2938V41.7649L164.807 41.8002C163.799 41.8179 163.419 41.9241 163.18 42.2957C163.003 42.5699 162.985 42.6761 162.923 42.7911C162.888 42.9149 162.835 42.9415 162.764 42.9415C162.728 42.9415 162.658 42.9061 162.658 42.8088C162.658 42.6407 162.985 41.2517 163.003 41.1279C163.038 41.0394 163.109 40.8359 163.162 40.8359C163.268 40.8359 163.436 40.9598 163.879 41.0217C164.33 41.0748 164.958 41.0925 165.144 41.0925H171.213C171.743 41.0925 172.106 41.0571 172.363 41.0217C172.602 40.9863 172.743 40.9509 172.814 40.9509C172.885 40.9509 172.885 41.0394 172.885 41.1279C172.885 41.6056 172.832 42.7203 172.832 42.9061C172.832 43.0299 172.761 43.1096 172.681 43.1096C172.602 43.1096 172.575 43.0565 172.557 42.8353L172.54 42.6761C172.487 42.1984 172.142 41.8533 170.602 41.8179L168.585 41.7825V48.3115L168.576 48.2938Z" fill="#F4F5F5"/>
<path id="Vector_16" d="M178.423 48.7627C178.423 47.9223 178.317 47.6126 178.078 47.1703C177.945 46.9314 175.769 43.4723 175.22 42.6496C174.84 42.0657 174.459 41.7118 174.159 41.5172C173.92 41.3756 173.61 41.296 173.486 41.296C173.398 41.296 173.318 41.2252 173.318 41.1456C173.318 41.066 173.371 41.0394 173.522 41.0394C173.831 41.0394 175.043 41.0748 175.114 41.0748C175.22 41.0748 175.875 41.0394 176.503 41.0394C176.689 41.0394 176.724 41.0748 176.724 41.1456C176.724 41.1987 176.618 41.2606 176.468 41.3137C176.344 41.3668 176.273 41.4375 176.273 41.5702C176.273 41.7914 176.379 41.9683 176.494 42.1718L179.414 47.0199C179.75 46.3652 181.758 43.03 182.05 42.5169C182.253 42.1718 182.324 41.9153 182.324 41.7118C182.324 41.4906 182.253 41.3668 182.068 41.3137C181.926 41.2783 181.829 41.2075 181.829 41.1279C181.829 41.0748 181.917 41.0394 182.085 41.0394C182.51 41.0394 183.076 41.0748 183.2 41.0748C183.306 41.0748 184.465 41.0394 184.775 41.0394C184.881 41.0394 184.969 41.0748 184.969 41.1279C184.969 41.1987 184.899 41.2871 184.775 41.2871C184.589 41.2871 184.279 41.3402 184.023 41.4906C183.713 41.6676 183.563 41.8356 183.218 42.2603C182.687 42.8796 180.422 46.5422 180.086 47.1968C179.812 47.7453 179.891 48.2407 179.891 48.7539V50.0897C179.891 50.3463 179.891 51.001 179.944 51.6468C179.98 52.1068 180.086 52.3988 180.564 52.4695C180.785 52.5049 181.148 52.5403 181.298 52.5403C181.386 52.5403 181.431 52.6111 181.431 52.6642C181.431 52.7438 181.342 52.7969 181.174 52.7969C180.281 52.7969 179.237 52.7438 179.148 52.7438C179.069 52.7438 178.051 52.7969 177.573 52.7969C177.388 52.7969 177.317 52.7615 177.317 52.6642C177.317 52.6111 177.352 52.5403 177.45 52.5403C177.591 52.5403 177.777 52.5049 177.918 52.4695C178.255 52.3988 178.361 52.1068 178.396 51.6468C178.432 51.0098 178.432 50.3463 178.432 50.0897V48.7539L178.423 48.7627Z" fill="#F4F5F5"/>
<path id="Vector_17" d="M78.5245 68.898C76.7551 67.3056 76.3127 65.2177 76.3127 63.4838C76.3127 62.254 76.7285 60.1131 78.3652 58.4853C79.4622 57.3883 81.1254 56.5302 83.9387 56.5302C84.673 56.5302 85.6992 56.5832 86.5928 56.7513C87.2917 56.8752 87.8755 56.9902 88.4594 57.0256C88.6629 57.0433 88.6983 57.114 88.6983 57.2291C88.6983 57.3794 88.6452 57.5918 88.6098 58.2553C88.5744 58.8569 88.5744 59.8654 88.5567 60.1397C88.5391 60.4139 88.5037 60.5201 88.3975 60.5201C88.2648 60.5201 88.256 60.3962 88.256 60.1397C88.256 59.4231 87.964 58.6799 87.4863 58.273C86.8493 57.7245 85.4427 57.2291 83.8325 57.2291C81.3997 57.2291 80.2673 57.9456 79.6215 58.5649C78.2856 59.8477 77.9759 61.4755 77.9759 63.3422C77.9759 66.8367 80.6654 70.0393 84.5757 70.0393C85.9469 70.0393 87.0262 69.8712 87.7605 69.1192C88.1409 68.7122 88.3798 67.916 88.4329 67.5887C88.4683 67.3852 88.5037 67.3144 88.6187 67.3144C88.7071 67.3144 88.7514 67.4471 88.7514 67.5887C88.7514 67.7125 88.5302 69.305 88.3444 69.9242C88.2383 70.2693 88.2029 70.3047 87.8667 70.4551C87.1324 70.747 85.7435 70.8797 84.5757 70.8797C81.8332 70.8797 79.9842 70.2073 78.5421 68.9069" fill="#F4F5F5"/>
<path id="Vector_18" d="M101.261 58.6357C104.879 58.6357 107.622 60.8475 107.622 64.4747C107.622 68.1019 105.047 70.8178 101.164 70.8178C96.7578 70.8178 94.8734 67.5091 94.8734 64.7135C94.8734 62.2099 96.8109 58.6446 101.261 58.6446M101.624 70.1897C103.074 70.1897 105.976 69.42 105.976 64.9258C105.976 61.1925 103.703 59.2373 101.164 59.2373C98.4741 59.2373 96.5366 60.9182 96.5366 64.3066C96.5366 67.9249 98.7129 70.1985 101.624 70.1985" fill="#F4F5F5"/>
<path id="Vector_19" d="M116.663 66.129C116.663 68.4114 116.698 69.3492 116.99 69.6235C117.247 69.88 117.866 69.9862 119.131 69.9862C119.972 69.9862 120.688 69.9685 121.069 69.5084C121.272 69.2696 121.396 68.9422 121.458 68.6326C121.476 68.5264 121.529 68.4291 121.617 68.4291C121.688 68.4291 121.723 68.4999 121.723 68.668C121.723 68.8361 121.617 69.765 121.485 70.225C121.378 70.5878 121.317 70.6408 120.458 70.6408C119.308 70.6408 118.406 70.6231 117.663 70.5878C116.928 70.5701 116.38 70.5524 115.911 70.5524C115.84 70.5524 115.566 70.5524 115.256 70.5701C114.929 70.5878 114.584 70.6055 114.328 70.6055C114.168 70.6055 114.071 70.5701 114.071 70.4728C114.071 70.4197 114.106 70.34 114.195 70.34C114.336 70.34 114.54 70.3047 114.69 70.2693C115 70.1985 115.035 69.9066 115.115 69.4465C115.203 68.8007 115.203 67.5798 115.203 66.0847V63.3422C115.203 60.927 115.203 60.4847 115.168 59.9893C115.133 59.4585 115.035 59.2019 114.513 59.1311C114.381 59.1134 114.106 59.0957 113.965 59.0957C113.912 59.0957 113.841 59.025 113.841 58.9719C113.841 58.8746 113.912 58.848 114.098 58.848C114.832 58.848 115.831 58.8834 115.929 58.8834C116 58.8834 117.212 58.848 117.707 58.848C117.875 58.848 117.964 58.8834 117.964 58.9719C117.964 59.025 117.893 59.078 117.831 59.078C117.725 59.078 117.486 59.0957 117.3 59.1134C116.822 59.2019 116.734 59.4408 116.698 59.9893C116.681 60.4847 116.681 60.9182 116.681 63.3422V66.1201L116.663 66.129Z" fill="#F4F5F5"/>
<path id="Vector_20" d="M130.65 66.129C130.65 68.4114 130.685 69.3492 130.977 69.6235C131.234 69.88 131.853 69.9862 133.118 69.9862C133.959 69.9862 134.675 69.9685 135.056 69.5084C135.259 69.2696 135.383 68.9422 135.436 68.6326C135.454 68.5264 135.516 68.4291 135.604 68.4291C135.675 68.4291 135.71 68.4999 135.71 68.668C135.71 68.8361 135.604 69.765 135.471 70.225C135.365 70.5878 135.303 70.6408 134.445 70.6408C133.295 70.6408 132.393 70.6231 131.65 70.5878C130.915 70.5701 130.367 70.5524 129.889 70.5524C129.818 70.5524 129.544 70.5524 129.234 70.5701C128.907 70.5878 128.553 70.6055 128.305 70.6055C128.137 70.6055 128.049 70.5701 128.049 70.4728C128.049 70.4197 128.084 70.34 128.182 70.34C128.332 70.34 128.527 70.3047 128.677 70.2693C128.987 70.1985 129.022 69.9066 129.093 69.4465C129.19 68.8007 129.19 67.5798 129.19 66.0847V63.3422C129.19 60.927 129.19 60.4847 129.155 59.9893C129.119 59.4585 129.022 59.2019 128.5 59.1311C128.367 59.1134 128.102 59.0957 127.952 59.0957C127.899 59.0957 127.828 59.025 127.828 58.9719C127.828 58.8746 127.899 58.848 128.084 58.848C128.819 58.848 129.827 58.8834 129.916 58.8834C129.986 58.8834 131.198 58.848 131.685 58.848C131.853 58.848 131.942 58.8834 131.942 58.9719C131.942 59.025 131.871 59.078 131.809 59.078C131.703 59.078 131.464 59.0957 131.278 59.1134C130.8 59.2019 130.712 59.4408 130.676 59.9893C130.659 60.4847 130.659 60.9182 130.659 63.3422V66.1201L130.65 66.129Z" fill="#F4F5F5"/>
<path id="Vector_21" d="M143.177 63.3511C143.177 60.9359 143.177 60.4936 143.142 59.9981C143.106 59.4673 143.009 59.2108 142.487 59.14C142.354 59.1223 142.08 59.1046 141.938 59.1046C141.885 59.1046 141.815 59.0338 141.815 58.9807C141.815 58.8834 141.885 58.8569 142.071 58.8569C142.805 58.8569 143.849 58.8923 143.938 58.8923C144.044 58.8923 147.415 58.91 147.777 58.8923C148.087 58.8746 148.379 58.8215 148.512 58.8038C148.582 58.7861 148.653 58.733 148.733 58.733C148.786 58.733 148.812 58.8038 148.812 58.8834C148.812 58.9896 148.715 59.1754 148.68 59.6177C148.662 59.7681 148.627 60.4582 148.582 60.644C148.565 60.7147 148.512 60.812 148.441 60.812C148.352 60.812 148.308 60.7413 148.308 60.6086C148.308 60.5024 148.29 60.2458 148.22 60.0601C148.114 59.8035 147.945 59.6973 147.07 59.5823C146.795 59.5469 144.929 59.5292 144.752 59.5292C144.681 59.5292 144.663 59.5823 144.663 59.6973V63.9173C144.663 64.0234 144.663 64.0854 144.752 64.0854C144.955 64.0854 147.07 64.0854 147.441 64.05C147.83 64.0146 148.069 63.988 148.229 63.8288C148.335 63.7226 148.414 63.6253 148.467 63.6253C148.52 63.6253 148.556 63.6607 148.556 63.7492C148.556 63.8377 148.467 64.0942 148.423 64.6073C148.388 64.917 148.352 65.5009 148.352 65.6159C148.352 65.7486 148.317 65.9078 148.211 65.9078C148.14 65.9078 148.096 65.8547 148.096 65.7663C148.096 65.6159 148.096 65.4566 148.025 65.2531C147.972 65.032 147.83 64.855 147.202 64.7754C146.769 64.7223 145.044 64.7046 144.769 64.7046C144.681 64.7046 144.663 64.7577 144.663 64.8108V66.1113C144.663 66.6421 144.646 68.4557 144.663 68.7653C144.699 69.8093 144.991 70.0127 146.583 70.0127C147.008 70.0127 147.768 70.0127 148.193 69.8447C148.609 69.6589 148.83 69.3846 148.927 68.7653C148.963 68.5796 148.998 68.5265 149.087 68.5265C149.175 68.5265 149.202 68.6503 149.202 68.7653C149.202 68.8803 149.069 69.9331 148.98 70.2693C148.865 70.6674 148.706 70.6674 148.078 70.6674C146.875 70.6674 145.937 70.632 145.283 70.6143C144.61 70.5789 144.186 70.5789 143.947 70.5789C143.911 70.5789 143.602 70.5789 143.248 70.5966C142.938 70.6143 142.575 70.632 142.319 70.632C142.151 70.632 142.062 70.5966 142.062 70.4993C142.062 70.4462 142.098 70.3666 142.186 70.3666C142.337 70.3666 142.54 70.3135 142.682 70.2958C142.991 70.2428 143.027 69.9331 143.106 69.4731C143.195 68.8361 143.195 67.6064 143.195 66.1113V63.3688L143.177 63.3511Z" fill="#F4F5F5"/>
<path id="Vector_22" d="M165.038 66.6422C165.038 65.3771 165.002 65.1913 164.348 65.0674C164.215 65.0497 163.941 65.0321 163.799 65.0321C163.746 65.0321 163.666 64.9613 163.666 64.9082C163.666 64.802 163.737 64.7843 163.923 64.7843C164.657 64.7843 165.737 64.8197 165.825 64.8197C165.896 64.8197 166.904 64.7843 167.4 64.7843C167.585 64.7843 167.656 64.802 167.656 64.9082C167.656 64.9613 167.585 65.0321 167.532 65.0321C167.426 65.0321 167.311 65.0321 167.125 65.0674C166.683 65.1382 166.559 65.3771 166.524 65.9256C166.506 66.421 166.506 66.881 166.506 67.5357V69.2697C166.506 69.9863 166.488 70.004 166.285 70.1101C165.259 70.6409 163.799 70.809 162.87 70.809C161.64 70.809 159.358 70.6675 157.571 69.1458C156.58 68.3231 155.651 66.6599 155.651 64.7224C155.651 62.2365 156.916 60.4759 158.341 59.6178C159.783 58.742 161.393 58.627 162.622 58.627C163.649 58.627 164.781 58.8127 165.091 58.8835C165.418 58.9543 165.984 59.0516 166.391 59.0516C166.55 59.0516 166.586 59.1224 166.586 59.202C166.586 59.4232 166.497 59.8478 166.497 61.396C166.497 61.6526 166.427 61.7233 166.312 61.7233C166.214 61.7233 166.205 61.6349 166.205 61.4845C166.188 61.281 166.099 60.8298 165.834 60.4582C165.436 59.8744 164.206 59.2462 162.118 59.2462C161.154 59.2462 159.977 59.317 158.756 60.2548C157.827 60.9714 157.164 62.3603 157.164 64.1739C157.164 66.3679 158.296 67.9427 158.863 68.4735C160.145 69.6589 161.49 70.1013 162.976 70.1013C163.542 70.1013 164.294 70.0482 164.719 69.8093C164.914 69.7032 165.046 69.6236 165.046 69.3316V66.6422H165.038Z" fill="#F4F5F5"/>
<path id="Vector_23" d="M175.548 63.3511C175.548 60.9359 175.548 60.4936 175.512 59.9981C175.477 59.4673 175.388 59.2108 174.857 59.14C174.734 59.1223 174.451 59.1046 174.309 59.1046C174.256 59.1046 174.176 59.0338 174.176 58.9807C174.176 58.8834 174.247 58.8569 174.433 58.8569C175.167 58.8569 176.211 58.8923 176.3 58.8923C176.406 58.8923 179.767 58.91 180.139 58.8923C180.449 58.8746 180.741 58.8215 180.873 58.8038C180.944 58.7861 181.015 58.733 181.086 58.733C181.139 58.733 181.165 58.8038 181.165 58.8834C181.165 58.9896 181.068 59.1754 181.033 59.6177C181.015 59.7681 180.979 60.4582 180.944 60.644C180.926 60.7147 180.873 60.812 180.794 60.812C180.696 60.812 180.661 60.7413 180.661 60.6086C180.661 60.5024 180.643 60.2458 180.573 60.0601C180.466 59.8035 180.298 59.6973 179.422 59.5823C179.148 59.5469 177.282 59.5292 177.105 59.5292C177.034 59.5292 177.016 59.5823 177.016 59.6973V63.9173C177.016 64.0234 177.016 64.0854 177.105 64.0854C177.308 64.0854 179.422 64.0854 179.794 64.05C180.174 64.0146 180.413 63.988 180.581 63.8288C180.688 63.7226 180.767 63.6253 180.82 63.6253C180.873 63.6253 180.909 63.6607 180.909 63.7492C180.909 63.8377 180.82 64.0942 180.776 64.6073C180.741 64.917 180.705 65.5009 180.705 65.6159C180.705 65.7486 180.67 65.9078 180.564 65.9078C180.493 65.9078 180.458 65.8547 180.458 65.7663C180.458 65.6159 180.458 65.4566 180.387 65.2531C180.334 65.032 180.183 64.855 179.564 64.7754C179.13 64.7223 177.405 64.7046 177.131 64.7046C177.043 64.7046 177.025 64.7577 177.025 64.8108V66.1113C177.025 66.6421 177.007 68.4557 177.025 68.7653C177.06 69.8093 177.352 70.0127 178.945 70.0127C179.369 70.0127 180.13 70.0127 180.555 69.8447C180.979 69.6589 181.192 69.3846 181.289 68.7653C181.324 68.5796 181.36 68.5265 181.448 68.5265C181.537 68.5265 181.555 68.6503 181.555 68.7653C181.555 68.8803 181.431 69.9331 181.333 70.2693C181.218 70.6674 181.059 70.6674 180.44 70.6674C179.237 70.6674 178.299 70.632 177.635 70.6143C176.963 70.5789 176.538 70.5789 176.3 70.5789C176.264 70.5789 175.954 70.5789 175.601 70.5966C175.291 70.6143 174.919 70.632 174.672 70.632C174.504 70.632 174.415 70.5966 174.415 70.4993C174.415 70.4462 174.451 70.3666 174.548 70.3666C174.689 70.3666 174.893 70.3135 175.043 70.2958C175.353 70.2428 175.388 69.9331 175.459 69.4731C175.548 68.8361 175.548 67.6064 175.548 66.1113V63.3688V63.3511Z" fill="#F4F5F5"/>
<path id="Vector_24" d="M73.8091 31.3699H188.26" stroke="#F4F5F5" stroke-width="0.92"/>
<path id="Vector_25" d="M4.56494 13.6585V11.1991L4.74188 24.2836C7.36054 24.8321 10.28 25.1859 15.0838 24.7171C21.1793 24.1155 24.0457 22.7973 27.089 21.4083C30.3092 19.9309 33.6445 18.4093 40.4477 17.7369C47.2509 17.0646 50.8162 17.9138 54.2664 18.7366C54.6114 18.8162 54.9565 18.9047 55.3015 18.9755L55.4254 14.8971V10.0756H4.57379V10.7125" fill="#B5121B"/>
<path id="Vector_26" d="M25.9389 52.2925C31.4062 49.5323 33.6091 47.2676 35.9358 44.8701C38.4129 42.331 40.9608 39.7035 47.0651 36.616C50.3561 34.9528 52.9217 34.0504 55.1423 33.493L55.2484 22.868C54.5761 22.7176 53.9214 22.5672 53.2756 22.408C50.0288 21.6294 46.959 20.904 40.8635 21.5056C34.768 22.1072 31.9017 23.4254 28.8672 24.8143C25.6381 26.2917 22.3117 27.8222 15.5085 28.4857C10.6781 28.9635 7.48442 28.6715 4.80383 28.1673L5.09578 49.4881C5.09578 49.4881 4.95423 53.4338 7.63482 57.176C10.0765 56.4506 12.0759 56.1763 14.0399 55.9109C17.3486 55.4597 20.4804 55.0351 25.9389 52.2749" fill="#E7A614"/>
<path id="Vector_27" d="M48.9938 39.9778C43.5264 42.738 41.3236 45.0028 38.9968 47.3914C36.5197 49.9393 33.9718 52.558 27.8675 55.6455C21.7721 58.7242 18.136 59.2285 14.6238 59.6974C13.5268 59.8477 12.4475 59.9981 11.3063 60.2282C11.4655 60.3343 11.6336 60.4405 11.8017 60.5378C18.7641 64.687 29.9554 71.3044 29.9554 71.3044C29.9554 71.3044 30.0439 71.384 30.15 71.3044C30.15 71.3044 41.3412 64.687 48.3037 60.5378C55.2573 56.3886 55.0007 49.0635 55.0007 49.0635L55.1246 37.4741C53.3995 37.9872 51.4355 38.7481 49.0115 39.9778" fill="#00447C"/>
<path id="Vector_28" d="M3.70679 4.40466H6.52892V5.35127H6.39622C6.35199 5.01509 6.22813 4.78507 6.01581 4.66122C5.9008 4.59929 5.72386 4.5639 5.49385 4.55506V7.02332C5.49385 7.20026 5.52039 7.31527 5.58231 7.36835C5.64424 7.43028 5.7681 7.45682 5.95388 7.45682V7.57183H4.28183V7.45682C4.46761 7.45682 4.59147 7.43028 4.6534 7.36835C4.71533 7.30642 4.74187 7.20026 4.74187 7.02332V4.55506C4.51185 4.55506 4.33491 4.59929 4.2199 4.66122C3.99873 4.78507 3.86603 5.01509 3.83949 5.35127H3.70679V4.40466Z" fill="#F4F5F5"/>
<path id="Vector_29" d="M6.76788 7.44803C6.89174 7.44803 6.9802 7.43034 7.03328 7.39495C7.12175 7.34187 7.15714 7.2534 7.15714 7.1207V4.85591C7.15714 4.72321 7.12175 4.63474 7.04213 4.59051C6.9979 4.56396 6.90058 4.54627 6.76788 4.52858V4.40472H8.35146V4.52858C8.20991 4.52858 8.12144 4.55512 8.06836 4.58166C7.9799 4.63474 7.93566 4.72321 7.93566 4.85591V5.82906H9.05036V4.85591C9.05036 4.72321 9.00613 4.63474 8.91766 4.58166C8.86458 4.55512 8.76726 4.53742 8.62571 4.51973V4.39587H10.2181V4.51973C10.0766 4.52858 9.98812 4.55512 9.93504 4.58166C9.84658 4.62589 9.80234 4.71436 9.80234 4.84706V7.11185C9.80234 7.24455 9.84658 7.34187 9.94389 7.39495C9.99697 7.42149 10.0854 7.43918 10.2093 7.44803V7.57189H8.61687V7.44803C8.74957 7.44803 8.84688 7.43034 8.90881 7.39495C8.99728 7.35071 9.04151 7.2534 9.04151 7.1207V6.04138H7.92681V7.1207C7.92681 7.26225 7.97105 7.35072 8.06836 7.4038C8.12144 7.43034 8.21876 7.44803 8.34262 7.44803V7.57189H6.75903V7.44803H6.76788Z" fill="#F4F5F5"/>
<path id="Vector_30" d="M10.3774 7.57183V7.44797C10.5101 7.44797 10.6074 7.42143 10.6693 7.39489C10.7578 7.35065 10.802 7.25334 10.802 7.12064V4.85585C10.802 4.72315 10.7578 4.62583 10.6605 4.5816C10.6074 4.55506 10.5189 4.53736 10.3774 4.52852V4.40466H13.0757V5.35127H12.9606C12.8987 5.05048 12.8014 4.847 12.6599 4.73199C12.5183 4.61699 12.2618 4.56391 11.8813 4.56391C11.7398 4.56391 11.6513 4.5816 11.6071 4.60814C11.5717 4.63468 11.5452 4.69661 11.5452 4.78508V5.87324C11.8106 5.87324 11.9963 5.829 12.0848 5.73169C12.1821 5.63437 12.2529 5.44859 12.2971 5.18318H12.4121V6.75792H12.2971C12.2618 6.49251 12.1998 6.30673 12.0937 6.20057C11.9875 6.09441 11.8017 6.03248 11.5363 6.03248V7.16487C11.5363 7.26219 11.5629 7.33296 11.6071 7.36835C11.6602 7.40374 11.7663 7.42143 11.9256 7.42143C12.2264 7.42143 12.4652 7.3595 12.6599 7.24449C12.8456 7.12948 13.0137 6.90831 13.1641 6.59868H13.2968L13.111 7.57183H10.3685H10.3774Z" fill="#F4F5F5"/>
<path id="Vector_31" d="M14.7211 6.47479H14.8538C14.9245 6.82866 15.0484 7.07637 15.2165 7.23561C15.3846 7.39486 15.5704 7.47448 15.7827 7.47448C15.995 7.47448 16.1366 7.4214 16.225 7.31524C16.3135 7.20907 16.3577 7.09407 16.3577 6.97021C16.3577 6.82866 16.3135 6.71365 16.225 6.62518C16.1631 6.56326 16.0392 6.49248 15.8535 6.39517L15.5527 6.24477C15.2519 6.09437 15.0484 5.94398 14.9245 5.80243C14.8007 5.65203 14.7388 5.4751 14.7388 5.26277C14.7388 5.03275 14.8184 4.82043 14.9865 4.61695C15.1457 4.42232 15.3934 4.31616 15.7296 4.31616C15.8977 4.31616 16.0658 4.3427 16.225 4.39578C16.3843 4.44886 16.4727 4.47541 16.4993 4.47541C16.5524 4.47541 16.5878 4.45771 16.6054 4.43117C16.6231 4.40463 16.6408 4.3604 16.6497 4.31616H16.7912V5.33355H16.6585C16.5966 5.09468 16.4904 4.90005 16.3312 4.72312C16.1808 4.55503 15.9862 4.46656 15.7738 4.46656C15.6146 4.46656 15.4996 4.51079 15.4111 4.59926C15.3227 4.68773 15.2784 4.79389 15.2784 4.9089C15.2784 5.0593 15.3227 5.16546 15.4111 5.24508C15.4907 5.3247 15.6765 5.43086 15.9685 5.57241L16.3135 5.74935C16.4639 5.82897 16.5966 5.90859 16.6851 6.00591C16.8532 6.18284 16.9416 6.39517 16.9416 6.65172C16.9416 6.89059 16.8532 7.11176 16.6674 7.32408C16.4816 7.53641 16.1896 7.64257 15.7827 7.64257C15.6942 7.64257 15.5969 7.64257 15.4996 7.61603C15.4023 7.59833 15.3138 7.57179 15.2165 7.53641L15.128 7.50102C15.128 7.50102 15.0926 7.49217 15.0661 7.48333C15.0484 7.48333 15.0307 7.48333 15.013 7.48333C14.9688 7.48333 14.9334 7.50102 14.9157 7.52756C14.898 7.5541 14.8803 7.59834 14.8715 7.65142H14.7388V6.49248L14.7211 6.47479Z" fill="#F4F5F5"/>
<path id="Vector_32" d="M17.2159 7.44801C17.331 7.44801 17.4194 7.39493 17.4902 7.29761C17.5344 7.23568 17.5964 7.10298 17.6848 6.90835L18.7288 4.34277H18.8615L19.9054 6.80219C20.0292 7.07644 20.1089 7.25338 20.1708 7.333C20.2327 7.41262 20.3123 7.44801 20.4185 7.44801V7.57186H18.9057V7.44801C19.0561 7.44801 19.1622 7.43031 19.2065 7.41262C19.2507 7.39493 19.2773 7.34185 19.2773 7.26223C19.2773 7.22684 19.2684 7.17376 19.2419 7.09413C19.2242 7.0499 19.2065 6.99682 19.1799 6.93489L19.0649 6.65179H18.0122C17.9414 6.83758 17.8971 6.96143 17.8795 7.01451C17.8352 7.12952 17.8175 7.21799 17.8175 7.27107C17.8175 7.34185 17.8618 7.38608 17.9502 7.42147C18.0033 7.43916 18.0829 7.44801 18.1891 7.44801V7.57186H17.2336V7.44801H17.2159ZM18.9765 6.46601L18.5253 5.37785H18.4899L18.0652 6.46601H18.9765Z" fill="#F4F5F5"/>
<path id="Vector_33" d="M20.5777 7.44803C20.7016 7.44803 20.7989 7.43034 20.8519 7.39495C20.9493 7.34187 20.9935 7.2534 20.9935 7.11185V4.84706C20.9935 4.71436 20.9493 4.61705 20.8608 4.57281C20.8077 4.54627 20.7104 4.52858 20.5777 4.51973V4.39587H22.2144V4.51973C22.0286 4.51973 21.8959 4.55512 21.8339 4.59935C21.772 4.64358 21.7366 4.75859 21.7366 4.94438V7.15608C21.7366 7.26225 21.7632 7.32418 21.8163 7.35956C21.8693 7.39495 21.9755 7.41264 22.1347 7.41264C22.4178 7.41264 22.6567 7.35071 22.8425 7.22686C23.0371 7.103 23.1964 6.86414 23.3379 6.50142H23.4706L23.2848 7.56304H20.5688V7.43918L20.5777 7.44803Z" fill="#F4F5F5"/>
<path id="Vector_34" d="M24.8065 4.40466V4.52852C24.6385 4.53736 24.5323 4.55506 24.4792 4.57275C24.4261 4.59045 24.3996 4.64353 24.3996 4.7143C24.3996 4.74084 24.3996 4.75854 24.3996 4.78508C24.3996 4.80277 24.4084 4.82931 24.4173 4.847L25.1604 6.58098L25.7708 4.9974C25.7708 4.9974 25.7974 4.92663 25.8062 4.89124C25.8239 4.82931 25.8328 4.78508 25.8328 4.74969C25.8328 4.66122 25.8062 4.60814 25.7532 4.5816C25.7001 4.5639 25.5939 4.54621 25.4347 4.53736V4.41351H26.4344V4.53736C26.3194 4.54621 26.2309 4.5816 26.1778 4.63468C26.1247 4.68776 26.0628 4.78507 26.0186 4.91778L24.9481 7.66914H24.8242L23.6211 4.8647C23.568 4.74969 23.5238 4.67007 23.4707 4.61699C23.4264 4.57275 23.338 4.53736 23.2318 4.52852V4.40466H24.7977H24.8065Z" fill="#F4F5F5"/>
<path id="Vector_35" d="M26.0096 7.44801C26.1247 7.44801 26.2131 7.39493 26.2839 7.29761C26.3281 7.23568 26.3901 7.10298 26.4785 6.90835L27.5225 4.34277H27.6552L28.6991 6.80219C28.8141 7.07644 28.9026 7.25338 28.9645 7.333C29.0176 7.41262 29.106 7.44801 29.2122 7.44801V7.57186H27.6994V7.44801C27.8498 7.44801 27.9559 7.43031 28.0002 7.41262C28.0444 7.39493 28.071 7.34185 28.071 7.26223C28.071 7.22684 28.0621 7.17376 28.0356 7.09413C28.0179 7.0499 28.0002 6.99682 27.9736 6.93489L27.8586 6.65179H26.8059C26.7351 6.83758 26.6908 6.96143 26.6732 7.01451C26.6289 7.12952 26.6112 7.21799 26.6112 7.27107C26.6112 7.34185 26.6555 7.38608 26.7439 7.42147C26.797 7.43916 26.8766 7.44801 26.9828 7.44801V7.57186H26.0273V7.44801H26.0096ZM27.7702 6.46601L27.319 5.37785H27.2836L26.8589 6.46601H27.7702Z" fill="#F4F5F5"/>
<path id="Vector_36" d="M29.0619 4.40466H31.8752V5.35127H31.7425C31.6982 5.01509 31.5744 4.78507 31.3621 4.66122C31.247 4.59929 31.0701 4.5639 30.8401 4.55506V7.02332C30.8401 7.20026 30.8666 7.31527 30.9286 7.36835C30.9905 7.43028 31.1143 7.45682 31.3001 7.45682V7.57183H29.6192V7.45682C29.805 7.45682 29.9289 7.43028 29.9908 7.36835C30.0527 7.30642 30.0793 7.20026 30.0793 7.02332V4.55506C29.8492 4.55506 29.6723 4.59929 29.5573 4.66122C29.3361 4.78507 29.2123 5.01509 29.1769 5.35127H29.0442V4.40466H29.0619Z" fill="#F4F5F5"/>
<path id="Vector_37" d="M32.1139 7.44797C32.2467 7.44797 32.344 7.43028 32.397 7.40374C32.4944 7.35066 32.5386 7.26219 32.5386 7.12064V4.85585C32.5386 4.7143 32.4944 4.62583 32.4059 4.5816C32.3528 4.55506 32.2555 4.53736 32.1139 4.52852V4.40466H33.7506V4.52852C33.6002 4.52852 33.5029 4.55506 33.4498 4.5816C33.3525 4.62583 33.3083 4.72315 33.3083 4.85585V7.12064C33.3083 7.25334 33.3437 7.34181 33.4144 7.38604C33.4852 7.43028 33.6002 7.44797 33.7418 7.44797V7.57183H32.1051V7.44797H32.1139Z" fill="#F4F5F5"/>
<path id="Vector_38" d="M36.8382 4.79395C37.1655 5.10359 37.3248 5.51055 37.3248 5.99712C37.3248 6.4837 37.1655 6.89065 36.8382 7.20029C36.5285 7.50993 36.1304 7.66033 35.6616 7.66033C35.1573 7.66033 34.7503 7.49223 34.4318 7.15606C34.1399 6.84642 33.9895 6.46601 33.9895 6.01482C33.9895 5.52824 34.1399 5.12129 34.4495 4.8028C34.7592 4.48431 35.1573 4.32507 35.6527 4.32507C36.1481 4.32507 36.5197 4.47547 36.8293 4.78511M36.3781 6.87296C36.4489 6.64294 36.4843 6.35099 36.4843 5.98827C36.4843 5.49285 36.4135 5.11244 36.2543 4.86473C36.1039 4.60817 35.9093 4.48432 35.6527 4.48432C35.2988 4.48432 35.0511 4.69664 34.9184 5.12129C34.8476 5.34246 34.8123 5.6344 34.8123 5.99712C34.8123 6.35984 34.8476 6.65179 34.9184 6.88181C35.0511 7.29761 35.29 7.50108 35.6527 7.50108C36.0154 7.50108 36.2454 7.28876 36.3781 6.88181" fill="#F4F5F5"/>
<path id="Vector_39" d="M37.5459 7.44796C37.714 7.44796 37.829 7.41258 37.8821 7.35065C37.9352 7.28872 37.9529 7.20025 37.9529 7.0764V4.85584C37.8113 4.6966 37.7228 4.59929 37.6874 4.57275C37.6609 4.5462 37.6078 4.52851 37.5547 4.51966V4.39581H38.5456L40.1557 6.35096H40.1823V4.97085C40.1823 4.81161 40.1557 4.6966 40.0938 4.63467C40.0319 4.5639 39.9168 4.52851 39.7488 4.51082V4.38696H40.7661V4.51082C40.6158 4.53736 40.5184 4.57275 40.4654 4.60813C40.4123 4.65237 40.3946 4.74083 40.3946 4.88238V7.65144H40.2619L38.2006 5.13894H38.174V6.97908C38.174 7.12063 38.1917 7.22679 38.236 7.28872C38.2979 7.38604 38.4306 7.43912 38.6252 7.43912V7.56297H37.5636V7.43912L37.5459 7.44796Z" fill="#F4F5F5"/>
<path id="Vector_40" d="M41.8013 7.44801C41.9163 7.44801 42.0047 7.39493 42.0755 7.29761C42.1198 7.23568 42.1817 7.10298 42.2613 6.90835L43.3052 4.34277H43.4379L44.4819 6.80219C44.5969 7.07644 44.6853 7.25338 44.7473 7.333C44.8003 7.41262 44.8888 7.44801 44.995 7.44801V7.57186H43.4733V7.44801C43.6237 7.44801 43.7299 7.43031 43.7741 7.41262C43.8183 7.39493 43.8449 7.34185 43.8449 7.26223C43.8449 7.22684 43.836 7.17376 43.8095 7.09413C43.7918 7.0499 43.7741 6.99682 43.7476 6.93489L43.6237 6.65179H42.5709C42.5002 6.83758 42.4559 6.96143 42.4294 7.01451C42.394 7.12952 42.3675 7.21799 42.3675 7.27107C42.3675 7.34185 42.4117 7.38608 42.5002 7.42147C42.5532 7.43916 42.6329 7.44801 42.739 7.44801V7.57186H41.7836V7.44801H41.8013ZM43.5618 6.46601L43.1106 5.37785H43.0752L42.6506 6.46601H43.5618Z" fill="#F4F5F5"/>
<path id="Vector_41" d="M45.1542 7.44803C45.3135 7.44803 45.4196 7.41264 45.4727 7.35956C45.5258 7.30648 45.5523 7.20032 45.5523 7.02338V4.94438C45.5523 4.76744 45.517 4.65243 45.455 4.59051C45.4108 4.55512 45.3046 4.52858 45.1454 4.51973V4.39587H46.6493C46.959 4.39587 47.2155 4.43126 47.4102 4.49319C47.7817 4.62589 47.9764 4.86476 47.9764 5.20978C47.9764 5.46634 47.8791 5.66097 47.6844 5.81137C47.534 5.91753 47.3748 5.9883 47.2067 6.02369L48.1975 7.35956C48.1975 7.35956 48.2506 7.42149 48.2772 7.43034C48.3037 7.43918 48.3391 7.44803 48.3833 7.45688V7.57189H47.4102L46.322 6.11216V7.03223C46.322 7.20032 46.3486 7.30648 46.4016 7.35956C46.4547 7.42149 46.5609 7.44803 46.7201 7.45688V7.58073H45.1454V7.45688L45.1542 7.44803ZM46.9767 5.82906C47.1094 5.74944 47.1713 5.55481 47.1713 5.26286C47.1713 5.08593 47.1448 4.93553 47.1005 4.82937C47.0121 4.65243 46.8528 4.56397 46.6228 4.56397C46.499 4.56397 46.4193 4.58166 46.3751 4.6082C46.3397 4.64359 46.3132 4.68782 46.3132 4.76744V5.96176C46.6228 5.96176 46.8351 5.91753 46.9678 5.82906" fill="#F4F5F5"/>
<path id="Vector_42" d="M48.4983 7.44803C48.6841 7.44803 48.7903 7.41264 48.8522 7.35071C48.9053 7.28879 48.9318 7.20032 48.9318 7.07646V4.84706C48.9318 4.72321 48.9053 4.63474 48.8434 4.59935C48.7814 4.55512 48.6753 4.53742 48.516 4.51973V4.39587H49.6927L50.6127 6.56335H50.657L51.5682 4.39587H52.7448V4.51973C52.5856 4.53742 52.4794 4.56397 52.4175 4.6082C52.3644 4.65243 52.329 4.76744 52.329 4.94438V7.02338C52.329 7.19147 52.3556 7.30648 52.4175 7.35956C52.4794 7.41264 52.5856 7.43918 52.7448 7.44803V7.57189H51.1878V7.44803C51.3293 7.44803 51.4266 7.42149 51.4974 7.37725C51.5682 7.33302 51.6036 7.24455 51.6036 7.103V4.81168H51.5682L50.4181 7.56304H50.2943L49.1353 4.86475H49.1176V6.97915C49.1176 7.13839 49.1442 7.24455 49.2061 7.32418C49.2592 7.39495 49.3919 7.43918 49.5865 7.43918V7.56304H48.4895V7.43918L48.4983 7.44803Z" fill="#F4F5F5"/>
<path id="Vector_43" d="M54.4699 4.40466V4.52851C54.3107 4.53736 54.2045 4.54621 54.1603 4.5639C54.1161 4.58159 54.0895 4.60813 54.0895 4.66121C54.0895 4.67891 54.0895 4.70545 54.0984 4.73199C54.1072 4.75853 54.1338 4.80276 54.1603 4.86469L54.7796 5.98824L55.2838 5.16548C55.3192 5.12125 55.3458 5.05047 55.3812 4.9797C55.4342 4.87354 55.4608 4.78507 55.4608 4.73199C55.4608 4.65237 55.4254 4.59929 55.3635 4.5639C55.3192 4.54621 55.2219 4.52851 55.0715 4.51966V4.39581H56.0978V4.51966C56.027 4.52851 55.9562 4.54621 55.9208 4.5639C55.8677 4.59044 55.8147 4.63467 55.7793 4.6966L54.8857 6.14748V7.01447C54.8857 7.1914 54.9123 7.30642 54.9742 7.3595C55.0361 7.41258 55.1511 7.43912 55.3192 7.43912V7.56297H53.6914V7.43912C53.8684 7.43912 53.9834 7.40373 54.0364 7.35065C54.0984 7.29757 54.1249 7.18256 54.1249 7.01447V6.32442L53.2668 4.76738C53.2137 4.66121 53.1429 4.59044 53.0544 4.55505C53.0014 4.52851 52.9483 4.51966 52.8864 4.51082V4.38696H54.4522L54.4699 4.40466Z" fill="#F4F5F5"/>
</g>
<defs>
<clipPath id="clip0_1317_1688">
<rect width="189" height="77" fill="white"/>
</clipPath>
</defs>
</svg>
