<svg xmlns="http://www.w3.org/2000/svg" version="1.1" xmlns:xlink="http://www.w3.org/1999/xlink" viewBox="0 0 200 200"><rect width="200" height="200" fill="url('#gradient')"></rect><defs><linearGradient id="gradient" gradientTransform="rotate(0 0.5 0.5)"><stop offset="0%" stop-color="#15e6cc"></stop><stop offset="100%" stop-color="#09db9c"></stop></linearGradient></defs><g><g fill="#2c3431" transform="matrix(5.78187221396731,0,0,5.78187221396731,17.806934038668118,141.1084870797564)" stroke="#7d836e" stroke-width="0.5"><path d="M10.03-8.30L10.03-5.66L4.50-5.66L4.50 0L1.07 0L1.07-14.22L10.59-14.22L10.59-11.57L4.50-11.57L4.50-8.30L10.03-8.30ZM12.01-14.22L16.51-14.22L19.69-4.33L22.85-14.22L27.36-14.22L27.36 0L23.93 0L23.93-3.32L24.26-10.12L20.82 0L18.55 0L15.11-10.13L15.44-3.32L15.44 0L12.01 0L12.01-14.22Z"></path></g></g></svg>